<svg width="19" height="20" viewBox="0 0 19 20" fill="none" xmlns="http://www.w3.org/2000/svg">
<path d="M18.6719 7.41249C18.6142 7.24267 18.5081 7.09346 18.3666 6.98327C18.2251 6.87309 18.0545 6.80674 17.8757 6.79244L12.6466 6.37693L10.3838 1.36791C10.3117 1.20658 10.1945 1.06956 10.0463 0.973371C9.89804 0.877187 9.72515 0.825954 9.54846 0.825857C9.37176 0.82576 9.19882 0.876803 9.05049 0.972825C8.90217 1.06885 8.7848 1.20574 8.71256 1.367L6.44974 6.37693L1.22059 6.79244C1.0449 6.80635 0.876937 6.87059 0.7368 6.97747C0.596662 7.08435 0.490282 7.22933 0.430387 7.39508C0.370491 7.56084 0.359617 7.74034 0.399065 7.91211C0.438512 8.08388 0.526612 8.24064 0.652822 8.36366L4.51713 12.1307L3.15045 18.0487C3.10895 18.2279 3.12225 18.4153 3.18863 18.5868C3.255 18.7583 3.37138 18.9059 3.52267 19.0104C3.67395 19.1149 3.85316 19.1715 4.03703 19.1729C4.22091 19.1743 4.40096 19.1205 4.55382 19.0182L9.54816 15.6887L14.5425 19.0182C14.6987 19.122 14.883 19.1754 15.0705 19.1713C15.258 19.1672 15.4397 19.1057 15.5913 18.9953C15.7428 18.8848 15.8569 18.7305 15.9181 18.5533C15.9794 18.376 15.9849 18.1843 15.9339 18.0038L14.2563 12.1335L18.4169 8.38934C18.6893 8.14352 18.7893 7.76012 18.6719 7.41249Z" fill="#F3CD03"/>
</svg>
