<svg width="16" height="16" viewBox="0 0 16 16" fill="none" xmlns="http://www.w3.org/2000/svg">
<path fill-rule="evenodd" clip-rule="evenodd" d="M11.4601 10.3183L15.7639 14.6221C15.9151 14.7734 16.0001 14.9787 16 15.1927C15.9999 15.4067 15.9148 15.6119 15.7635 15.7632C15.6121 15.9145 15.4068 15.9994 15.1928 15.9994C14.9788 15.9993 14.7736 15.9142 14.6223 15.7628L10.3185 11.459C9.03194 12.4555 7.41407 12.9245 5.79403 12.7704C4.17398 12.6164 2.67346 11.851 1.59771 10.6299C0.521957 9.40887 -0.0482098 7.82384 0.00319691 6.1973C0.0546036 4.57076 0.723722 3.0249 1.87443 1.87419C3.02514 0.723478 4.57101 0.0543595 6.19754 0.00295277C7.82408 -0.0484539 9.40911 0.521713 10.6302 1.59746C11.8513 2.67321 12.6167 4.17374 12.7707 5.79378C12.9247 7.41383 12.4558 9.0317 11.4593 10.3183H11.4601ZM6.4003 11.199C7.67328 11.199 8.89412 10.6933 9.79425 9.79321C10.6944 8.89307 11.2001 7.67223 11.2001 6.39925C11.2001 5.12627 10.6944 3.90543 9.79425 3.0053C8.89412 2.10517 7.67328 1.59948 6.4003 1.59948C5.12732 1.59948 3.90648 2.10517 3.00634 3.0053C2.10621 3.90543 1.60052 5.12627 1.60052 6.39925C1.60052 7.67223 2.10621 8.89307 3.00634 9.79321C3.90648 10.6933 5.12732 11.199 6.4003 11.199Z" fill="white"/>
</svg>
